<?xml version="1.0"?>
<svg version="1.1" xmlns="http://www.w3.org/2000/svg" width="210" height="36" style=""><path fill="#8a93ff" d="M15.7998046875,24.474609375l0-2.005859375q0-2.08203125,0.06982421875-4.13232421875t0.12060546875-4.13232421875q0-0.3935546875-0.025390625-0.8759765625q-0.0126953125-0.1396484375-0.0126953125-0.2666015625q0-0.3173828125,0.05078125-0.6220703125q0.0634765625-0.40625,0.31103515625-0.6982421875t0.81884765625-0.2919921875q0.4697265625,0,0.71728515625,0.1015625t0.34912109375,0.29833984375t0.1142578125,0.4951171875t0.0126953125,0.69189453125q0,2.107421875-0.05078125,4.2275390625q-0.0380859375,1.4091796875-0.0380859375,2.818359375q0,0.7109375,0.0126953125,1.421875q0.025390625,2.107421875,0.19677734375,4.21484375t0.57763671875,4.1640625q1.26953125-0.05078125,2.5390625-0.126953125t2.5390625-0.076171875q0.126953125,0,0.36181640625,0.025390625t0.4697265625,0.0888671875t0.39990234375,0.1650390625t0.1650390625,0.2919921875q0,0.126953125-0.1142578125,0.2158203125t-0.2158203125,0.1396484375l-0.025390625,0q-0.203125,0.1015625-0.80615234375,0.19677734375t-1.37109375,0.14599609375t-1.6123046875,0.0888671875t-1.5869140625,0.0634765625t-1.28857421875,0.0380859375t-0.6728515625,0.0126953125l-0.1142578125,0q-0.3046875,0-0.685546875-0.1015625q-0.45703125-0.126953125-0.5712890625-0.4951171875q-0.228515625-0.939453125-0.36181640625-1.94873046875t-0.203125-2.05029296875t-0.06982421875-2.08203125z M27.335654296875,19.4599609375l0-0.9775390625l0-1.0029296875q0.0126953125-1.015625,0.08251953125-1.94873046875t0.19677734375-1.55517578125q0.076171875-0.3427734375,0.45703125-0.4189453125t0.66015625-0.076171875q0.5205078125,0,0.76806640625,0.126953125t0.32373046875,0.36181640625t0.0634765625,0.55859375t-0.0126953125,0.74267578125q0,0.5966796875-0.025390625,1.6630859375t-0.0380859375,2.361328125l0,0.6474609375q0,0.9775390625,0.025390625,2.0185546875q0.0380859375,1.396484375,0.14599609375,2.67236328125t0.29833984375,2.2978515625t0.533203125,1.56787109375q0.5458984375-0.4951171875,1.091796875-1.39013671875t1.041015625-2.01220703125t0.94580078125-2.35498046875t0.81884765625-2.41845703125t0.62841796875-2.2216796875t0.38720703125-1.7646484375q0.203125-1.041015625,0.27294921875-2.1201171875t0.06982421875-2.3994140625q0.3935546875-0.4697265625,0.609375-0.59033203125t0.685546875-0.12060546875q0.228515625,0,0.46337890625,0.0380859375t0.45068359375,0.177734375l0.177734375,0.279296875l0,0.3173828125q0,2.310546875-0.22216796875,4.69091796875t-0.4697265625,4.7861328125t-0.4697265625,4.82421875t-0.22216796875,4.80517578125q0,0.3681640625,0.03173828125,0.78076171875t0.13330078125,0.78076171875l-0.05078125,0.15234375q-0.177734375,0.2919921875-0.583984375,0.3681640625t-0.6982421875,0.076171875q-0.6220703125,0-0.93310546875-0.18408203125t-0.41259765625-0.5078125t-0.0888671875-0.7490234375t0.0126953125-0.92041015625q0-1.7138671875,0.15234375-3.48486328125t0.3681640625-3.48486328125q-0.203125,0.5966796875-0.482421875,1.44091796875t-0.65380859375,1.6884765625t-0.86962890625,1.548828125t-1.091796875,1.00927734375l0.025390625-0.025390625l-0.1015625,0.05078125l0.025390625,0q-0.3681640625,0.203125-0.67919921875,0.27294921875t-0.72998046875,0.06982421875q-0.837890625,0-1.39013671875-0.4951171875t-0.89501953125-1.27587890625t-0.5078125-1.751953125t-0.23486328125-1.94873046875t-0.06982421875-1.85986328125l0-1.45361328125q0-0.6982421875-0.0126953125-1.6630859375z M31.855185546875,29.5654296875q0.025390625,0,0.025390625-0.025390625l0.025390625,0q-0.025390625,0.025390625-0.05078125,0.025390625z M41.08048828125,20.18359375q0-0.837890625,0.06982421875-1.83447265625t0.24755859375-1.99951171875t0.533203125-1.93603515625t0.9140625-1.6630859375t1.36474609375-1.16162109375t1.92333984375-0.431640625q0.888671875,0,1.6376953125,0.3427734375t1.3076171875,0.9267578125t0.86962890625,1.36474609375t0.31103515625,1.63134765625q0,0.228515625-0.31103515625,0.28564453125t-0.43798828125,0.05712890625q-0.228515625,0-0.43798828125-0.0380859375t-0.31103515625-0.3046875q-0.177734375-0.4951171875-0.37451171875-1.041015625t-0.482421875-0.99658203125t-0.70458984375-0.74267578125q-0.380859375-0.25390625-0.96484375-0.25390625l-0.1015625,0q-1.06640625,0.025390625-1.5869140625,0.76171875t-0.71728515625,1.7900390625t-0.19677734375,2.234375l0,2.0947265625q0,0.5205078125,0.0380859375,1.5107421875t0.18408203125,2.158203125t0.380859375,2.38037109375t0.634765625,2.208984375t0.95849609375,1.625t1.345703125,0.62841796875q0.6982421875,0,1.21875-0.482421875t0.89501953125-1.23779296875t0.634765625-1.6884765625t0.431640625-1.87255859375t0.26025390625-1.74560546875t0.1396484375-1.32666015625q-0.1396484375-0.0126953125-0.2666015625-0.0126953125q-0.5966796875,0-1.16796875,0.1904296875q-0.7236328125,0.2158203125-1.447265625,0.2158203125q-0.1015625,0-0.27294921875-0.0126953125t-0.32373046875-0.0634765625t-0.27294921875-0.14599609375t-0.12060546875-0.24755859375q0-0.2919921875,0.64111328125-0.4951171875t1.4599609375-0.34912109375t1.58056640625-0.20947265625t1.0029296875-0.0634765625q0.126953125,0,0.36181640625,0.025390625t0.4697265625,0.0888671875t0.39990234375,0.18408203125t0.1650390625,0.29833984375q0,0.15234375-0.1142578125,0.27294921875t-0.28564453125,0.18408203125t-0.34912109375,0.0888671875t-0.279296875,0.025390625q0.0126953125,0.2919921875,0.0126953125,0.5966796875q0,0.685546875-0.0380859375,1.4599609375q-0.0634765625,1.1171875-0.25390625,2.234375t-0.583984375,2.1708984375t-1.0029296875,1.85986328125t-1.50439453125,1.30126953125t-2.12646484375,0.4951171875q-1.345703125,0-2.2724609375-0.5712890625t-1.5107421875-1.5234375t-0.90771484375-2.158203125t-0.46337890625-2.46923828125t-0.17138671875-2.45654296875t-0.03173828125-2.158203125z M55.510869140625,15.73388671875q-0.025390625-0.33642578125,0.05712890625-0.634765625t0.31103515625-0.4951171875t0.7744140625-0.19677734375q0.126953125,0,0.31103515625,0.025390625t0.3681640625,0.08251953125t0.29833984375,0.15869140625t0.1142578125,0.279296875q0,0.4697265625,0.03173828125,1.23779296875t0.08251953125,1.599609375t0.09521484375,1.625t0.08251953125,1.28857421875q0.990234375-0.05078125,1.9931640625-0.05078125t1.98046875-0.05078125l1.751953125-0.05078125l0-1.2568359375q0-2.107421875-0.08251953125-4.22119140625t-0.28564453125-4.22119140625q0-0.15234375,0.126953125-0.24755859375t0.29833984375-0.14599609375t0.35546875-0.0634765625t0.28564453125-0.0126953125q0.2919921875,0,0.62841796875,0.0888671875t0.38720703125,0.380859375l0.076171875,0.5458984375q0.3173828125,2.28515625,0.431640625,4.51953125t0.1650390625,4.46875q0.15234375,0.025390625,0.32373046875,0.08251953125t0.34912109375,0.10791015625q0.126953125,0.05078125,0.36181640625,0.15234375t0.23486328125,0.3173828125q0,0.203125-0.177734375,0.3173828125t-0.39990234375,0.17138671875t-0.431640625,0.06982421875t-0.26025390625,0.0126953125q0.025390625,0.939453125,0.025390625,1.87255859375l0,1.87255859375l0,4.1005859375l0,2.28515625q0,0.15234375-0.14599609375,0.27294921875t-0.34912109375,0.19677734375t-0.42529296875,0.1015625t-0.39990234375,0.025390625t-0.4189453125-0.025390625t-0.431640625-0.1015625t-0.33642578125-0.1904296875t-0.14599609375-0.279296875l0-0.5458984375q0.05078125-2.412109375,0.1142578125-4.77978515625t0.126953125-4.75439453125q-1.3837890625,0.05078125-2.81201171875,0.0634765625t-2.83740234375,0.0634765625q0.15234375,1.7900390625,0.34912109375,3.57373046875t0.41259765625,3.57373046875q0,0.15234375-0.14599609375,0.27294921875t-0.3427734375,0.19677734375t-0.4189453125,0.1015625t-0.39990234375,0.025390625q-0.3681640625,0-0.80615234375-0.126953125t-0.48876953125-0.4697265625q-0.15234375-1.345703125-0.28564453125-2.970703125t-0.23486328125-3.31982421875t-0.15869140625-3.31982421875t-0.05712890625-2.9453125q0-0.3173828125-0.025390625-0.65380859375z M69.94125,30.7080078125q0-0.076171875,0.05078125-0.53955078125t0.13330078125-1.1298828125t0.18408203125-1.4345703125t0.177734375-1.45361328125t0.13330078125-1.2060546875t0.05712890625-0.6982421875q-0.1015625-0.05078125-0.24755859375-0.14599609375t-0.14599609375-0.22216796875q0-0.177734375,0.17138671875-0.28564453125t0.29833984375-0.15869140625q0.05078125-0.6474609375,0.126953125-1.802734375t0.23486328125-2.49462890625t0.4443359375-2.716796875t0.75537109375-2.5009765625t1.1298828125-1.83447265625t1.625-0.7109375t1.599609375,0.609375t1.03466796875,1.5869140625t0.609375,2.1708984375t0.3173828125,2.3740234375t0.13330078125,2.208984375t0.05078125,1.650390625q0.025390625,0.3935546875,0.1904296875,0.52685546875t0.36181640625,0.18408203125t0.35546875,0.1142578125t0.15869140625,0.3173828125q0,0.2919921875-0.35546875,0.40625t-0.55859375,0.1396484375q0.126953125,1.5869140625,0.34912109375,3.123046875t0.59033203125,3.09765625q0.05078125,0.2919921875,0.1396484375,0.59033203125t0.0888671875,0.57763671875q0,0.203125-0.1396484375,0.33642578125t-0.36181640625,0.20947265625t-0.4443359375,0.1015625t-0.37451171875,0.025390625q-0.5712890625,0-0.96484375-0.2158203125t-0.5205078125-0.8251953125q-0.3427734375-1.6376953125-0.6728515625-3.4404296875q-0.279296875-1.5615234375-0.279296875-3.0341796875q0-0.228515625,0.0126953125-0.45703125q-1.06640625,0-2.1455078125,0.05078125t-2.0693359375,0.380859375q-0.025390625,0.3427734375-0.126953125,1.294921875t-0.228515625,2.0439453125t-0.26025390625,2.08837890625t-0.15869140625,1.41552734375q-0.025390625,0.177734375-0.26025390625,0.33642578125t-0.5078125,0.17138671875t-0.482421875-0.17138671875t-0.20947265625-0.65380859375z M72.3152734375,23.0146484375q0.990234375-0.228515625,1.98681640625-0.2666015625t2.01220703125-0.0888671875q-0.05078125-0.3173828125-0.025390625-0.65380859375t0.025390625-0.67919921875q0-0.7490234375-0.0380859375-1.7392578125t-0.1142578125-2.005859375t-0.19677734375-1.99951171875t-0.27294921875-1.751953125t-0.32373046875-1.22509765625t-0.37451171875-0.45703125q-0.3935546875,0.025390625-0.74267578125,0.67919921875t-0.634765625,1.6630859375t-0.5205078125,2.259765625t-0.3935546875,2.44384765625t-0.26025390625,2.2216796875t-0.126953125,1.599609375z M81.959521484375,12.9345703125q0-0.177734375,0.24755859375-0.27294921875t0.32373046875-0.09521484375l0.4697265625-0.076171875q0.4697265625-0.076171875,0.9521484375-0.13330078125t0.939453125-0.10791015625q1.6123046875-0.203125,3.224609375-0.39990234375t3.25-0.19677734375q0.126953125,0,0.34912109375,0.0126953125t0.4443359375,0.06982421875t0.380859375,0.15869140625t0.15869140625,0.279296875q0,0.126953125-0.12060546875,0.22216796875t-0.28564453125,0.14599609375t-0.33642578125,0.0634765625t-0.27294921875,0.0126953125l-0.22216796875,0t-0.22216796875-0.05078125q-0.6728515625,0-1.32666015625,0.0634765625t-1.32666015625,0.1142578125q0.177734375,0.203125,0.1904296875,0.5712890625t0.025390625,0.634765625q0,4.494140625,0.0634765625,8.9375t0.1142578125,8.9755859375l0,0.025390625q-0.4189453125,0.3681640625-0.71728515625,0.4697265625t-0.60302734375,0.1015625q-0.2919921875,0-0.59033203125-0.10791015625t-0.71728515625-0.46337890625l0-0.025390625l0.1015625-9.9658203125q0-0.990234375-0.025390625-2.18359375t-0.025390625-2.41845703125t0.0380859375-2.36767578125t0.203125-1.9931640625q-0.7490234375,0.076171875-1.5869140625,0.228515625q-0.7236328125,0.126953125-1.3837890625,0.126953125l-0.228515625,0q-0.05078125,0-0.29833984375,0.0126953125t-0.5078125-0.0126953125t-0.4697265625-0.1015625t-0.20947265625-0.25390625z M94.52369140625,19.4599609375l0-0.9775390625l0-1.0029296875q0.0126953125-1.015625,0.08251953125-1.94873046875t0.19677734375-1.55517578125q0.076171875-0.3427734375,0.45703125-0.4189453125t0.66015625-0.076171875q0.5205078125,0,0.76806640625,0.126953125t0.32373046875,0.36181640625t0.0634765625,0.55859375t-0.0126953125,0.74267578125q0,0.5966796875-0.025390625,1.6630859375t-0.0380859375,2.361328125l0,0.6474609375q0,0.9775390625,0.025390625,2.0185546875q0.0380859375,1.396484375,0.14599609375,2.67236328125t0.29833984375,2.2978515625t0.533203125,1.56787109375q0.5458984375-0.4951171875,1.091796875-1.39013671875t1.041015625-2.01220703125t0.94580078125-2.35498046875t0.81884765625-2.41845703125t0.62841796875-2.2216796875t0.38720703125-1.7646484375q0.203125-1.041015625,0.27294921875-2.1201171875t0.06982421875-2.3994140625q0.3935546875-0.4697265625,0.609375-0.59033203125t0.685546875-0.12060546875q0.228515625,0,0.46337890625,0.0380859375t0.45068359375,0.177734375l0.177734375,0.279296875l0,0.3173828125q0,2.310546875-0.22216796875,4.69091796875t-0.4697265625,4.7861328125t-0.4697265625,4.82421875t-0.22216796875,4.80517578125q0,0.3681640625,0.03173828125,0.78076171875t0.13330078125,0.78076171875l-0.05078125,0.15234375q-0.177734375,0.2919921875-0.583984375,0.3681640625t-0.6982421875,0.076171875q-0.6220703125,0-0.93310546875-0.18408203125t-0.41259765625-0.5078125t-0.0888671875-0.7490234375t0.0126953125-0.92041015625q0-1.7138671875,0.15234375-3.48486328125t0.3681640625-3.48486328125q-0.203125,0.5966796875-0.482421875,1.44091796875t-0.65380859375,1.6884765625t-0.86962890625,1.548828125t-1.091796875,1.00927734375l0.025390625-0.025390625l-0.1015625,0.05078125l0.025390625,0q-0.3681640625,0.203125-0.67919921875,0.27294921875t-0.72998046875,0.06982421875q-0.837890625,0-1.39013671875-0.4951171875t-0.89501953125-1.27587890625t-0.5078125-1.751953125t-0.23486328125-1.94873046875t-0.06982421875-1.85986328125l0-1.45361328125q0-0.6982421875-0.0126953125-1.6630859375z M99.04322265625,29.5654296875q0.025390625,0,0.025390625-0.025390625l0.025390625,0q-0.025390625,0.025390625-0.05078125,0.025390625z M108.26852539063,24.474609375l0-2.005859375q0-2.08203125,0.06982421875-4.13232421875t0.12060546875-4.13232421875q0-0.3935546875-0.025390625-0.8759765625q-0.0126953125-0.1396484375-0.0126953125-0.2666015625q0-0.3173828125,0.05078125-0.6220703125q0.0634765625-0.40625,0.31103515625-0.6982421875t0.81884765625-0.2919921875q0.4697265625,0,0.71728515625,0.1015625t0.34912109375,0.29833984375t0.1142578125,0.4951171875t0.0126953125,0.69189453125q0,2.107421875-0.05078125,4.2275390625q-0.0380859375,1.4091796875-0.0380859375,2.818359375q0,0.7109375,0.0126953125,1.421875q0.025390625,2.107421875,0.19677734375,4.21484375t0.57763671875,4.1640625q1.26953125-0.05078125,2.5390625-0.126953125t2.5390625-0.076171875q0.126953125,0,0.36181640625,0.025390625t0.4697265625,0.0888671875t0.39990234375,0.1650390625t0.1650390625,0.2919921875q0,0.126953125-0.1142578125,0.2158203125t-0.2158203125,0.1396484375l-0.025390625,0q-0.203125,0.1015625-0.80615234375,0.19677734375t-1.37109375,0.14599609375t-1.6123046875,0.0888671875t-1.5869140625,0.0634765625t-1.28857421875,0.0380859375t-0.6728515625,0.0126953125l-0.1142578125,0q-0.3046875,0-0.685546875-0.1015625q-0.45703125-0.126953125-0.5712890625-0.4951171875q-0.228515625-0.939453125-0.36181640625-1.94873046875t-0.203125-2.05029296875t-0.06982421875-2.08203125z"/><path fill="#09ed20" d="M124.7155078125,30.7080078125q0-0.076171875,0.05078125-0.53955078125t0.13330078125-1.1298828125t0.18408203125-1.4345703125t0.177734375-1.45361328125t0.13330078125-1.2060546875t0.05712890625-0.6982421875q-0.1015625-0.05078125-0.24755859375-0.14599609375t-0.14599609375-0.22216796875q0-0.177734375,0.17138671875-0.28564453125t0.29833984375-0.15869140625q0.05078125-0.6474609375,0.126953125-1.802734375t0.23486328125-2.49462890625t0.4443359375-2.716796875t0.75537109375-2.5009765625t1.1298828125-1.83447265625t1.625-0.7109375t1.599609375,0.609375t1.03466796875,1.5869140625t0.609375,2.1708984375t0.3173828125,2.3740234375t0.13330078125,2.208984375t0.05078125,1.650390625q0.025390625,0.3935546875,0.1904296875,0.52685546875t0.36181640625,0.18408203125t0.35546875,0.1142578125t0.15869140625,0.3173828125q0,0.2919921875-0.35546875,0.40625t-0.55859375,0.1396484375q0.126953125,1.5869140625,0.34912109375,3.123046875t0.59033203125,3.09765625q0.05078125,0.2919921875,0.1396484375,0.59033203125t0.0888671875,0.57763671875q0,0.203125-0.1396484375,0.33642578125t-0.36181640625,0.20947265625t-0.4443359375,0.1015625t-0.37451171875,0.025390625q-0.5712890625,0-0.96484375-0.2158203125t-0.5205078125-0.8251953125q-0.3427734375-1.6376953125-0.6728515625-3.4404296875q-0.279296875-1.5615234375-0.279296875-3.0341796875q0-0.228515625,0.0126953125-0.45703125q-1.06640625,0-2.1455078125,0.05078125t-2.0693359375,0.380859375q-0.025390625,0.3427734375-0.126953125,1.294921875t-0.228515625,2.0439453125t-0.26025390625,2.08837890625t-0.15869140625,1.41552734375q-0.025390625,0.177734375-0.26025390625,0.33642578125t-0.5078125,0.17138671875t-0.482421875-0.17138671875t-0.20947265625-0.65380859375z M127.08953125,23.0146484375q0.990234375-0.228515625,1.98681640625-0.2666015625t2.01220703125-0.0888671875q-0.05078125-0.3173828125-0.025390625-0.65380859375t0.025390625-0.67919921875q0-0.7490234375-0.0380859375-1.7392578125t-0.1142578125-2.005859375t-0.19677734375-1.99951171875t-0.27294921875-1.751953125t-0.32373046875-1.22509765625t-0.37451171875-0.45703125q-0.3935546875,0.025390625-0.74267578125,0.67919921875t-0.634765625,1.6630859375t-0.5205078125,2.259765625t-0.3935546875,2.44384765625t-0.26025390625,2.2216796875t-0.126953125,1.599609375z M137.50819335937,13.607421875q0-0.5966796875,0.14599609375-0.86962890625t0.4189453125-0.380859375t0.66015625-0.08251953125t0.90771484375,0.025390625q1.3203125,0,2.666015625,0.40625t2.4248046875,1.18701171875t1.7392578125,1.92333984375t0.66015625,2.6279296875q0,0.990234375-0.28564453125,1.87255859375t-0.80615234375,1.650390625t-1.21875,1.40283203125t-1.5361328125,1.1044921875q0.3427734375,0.3427734375,0.888671875,1.21240234375t1.0791015625,1.853515625t0.94580078125,1.91064453125t0.48876953125,1.396484375l-0.15234375,0.228515625q-0.3427734375,0.203125-0.8251953125,0.2158203125q-0.228515625,0-0.5966796875-0.05712890625t-0.4697265625-0.33642578125q-0.5205078125-1.4599609375-1.13623046875-3.0087890625t-1.51708984375-2.79296875l0-0.025390625q-0.3173828125,0.126953125-0.62841796875,0.24755859375t-0.62841796875,0.22216796875q0.1015625,1.4091796875,0.20947265625,2.77392578125t0.10791015625,2.76123046875q0,0.177734375-0.17138671875,0.28564453125t-0.38720703125,0.17138671875t-0.43798828125,0.0888671875t-0.36181640625,0.025390625q-0.126953125,0-0.36181640625-0.025390625t-0.45068359375-0.0888671875t-0.37451171875-0.18408203125t-0.15869140625-0.32373046875q0-1.4091796875-0.0634765625-2.81201171875t-0.1396484375-2.79931640625q-0.3935546875-0.25390625-0.3935546875-0.66015625q0-0.3173828125,0.3046875-0.431640625q-0.15234375-2.6787109375-0.34912109375-5.3447265625t-0.19677734375-5.3701171875z M139.80604492187,13.2138671875q0.177734375,2.7548828125,0.39990234375,5.4462890625t0.42529296875,5.4462890625q0.888671875-0.25390625,1.65673828125-0.88232421875t1.32666015625-1.41552734375t0.86962890625-1.7138671875t0.31103515625-1.8408203125q0-1.015625-0.40625-1.94873046875t-1.0791015625-1.63134765625q-0.685546875-0.6982421875-1.57421875-1.091796875q-0.787109375-0.3427734375-1.650390625-0.3427734375l-0.228515625,0z M149.65341796875,30.7080078125q0-0.076171875,0.05078125-0.53955078125t0.13330078125-1.1298828125t0.18408203125-1.4345703125t0.177734375-1.45361328125t0.13330078125-1.2060546875t0.05712890625-0.6982421875q-0.1015625-0.05078125-0.24755859375-0.14599609375t-0.14599609375-0.22216796875q0-0.177734375,0.17138671875-0.28564453125t0.29833984375-0.15869140625q0.05078125-0.6474609375,0.126953125-1.802734375t0.23486328125-2.49462890625t0.4443359375-2.716796875t0.75537109375-2.5009765625t1.1298828125-1.83447265625t1.625-0.7109375t1.599609375,0.609375t1.03466796875,1.5869140625t0.609375,2.1708984375t0.3173828125,2.3740234375t0.13330078125,2.208984375t0.05078125,1.650390625q0.025390625,0.3935546875,0.1904296875,0.52685546875t0.36181640625,0.18408203125t0.35546875,0.1142578125t0.15869140625,0.3173828125q0,0.2919921875-0.35546875,0.40625t-0.55859375,0.1396484375q0.126953125,1.5869140625,0.34912109375,3.123046875t0.59033203125,3.09765625q0.05078125,0.2919921875,0.1396484375,0.59033203125t0.0888671875,0.57763671875q0,0.203125-0.1396484375,0.33642578125t-0.36181640625,0.20947265625t-0.4443359375,0.1015625t-0.37451171875,0.025390625q-0.5712890625,0-0.96484375-0.2158203125t-0.5205078125-0.8251953125q-0.3427734375-1.6376953125-0.6728515625-3.4404296875q-0.279296875-1.5615234375-0.279296875-3.0341796875q0-0.228515625,0.0126953125-0.45703125q-1.06640625,0-2.1455078125,0.05078125t-2.0693359375,0.380859375q-0.025390625,0.3427734375-0.126953125,1.294921875t-0.228515625,2.0439453125t-0.26025390625,2.08837890625t-0.15869140625,1.41552734375q-0.025390625,0.177734375-0.26025390625,0.33642578125t-0.5078125,0.17138671875t-0.482421875-0.17138671875t-0.20947265625-0.65380859375z M152.02744140625,23.0146484375q0.990234375-0.228515625,1.98681640625-0.2666015625t2.01220703125-0.0888671875q-0.05078125-0.3173828125-0.025390625-0.65380859375t0.025390625-0.67919921875q0-0.7490234375-0.0380859375-1.7392578125t-0.1142578125-2.005859375t-0.19677734375-1.99951171875t-0.27294921875-1.751953125t-0.32373046875-1.22509765625t-0.37451171875-0.45703125q-0.3935546875,0.025390625-0.74267578125,0.67919921875t-0.634765625,1.6630859375t-0.5205078125,2.259765625t-0.3935546875,2.44384765625t-0.26025390625,2.2216796875t-0.126953125,1.599609375z M162.47784179687,13.08056640625q-0.03173828125-0.38720703125,0.05078125-0.6728515625t0.330078125-0.4697265625t0.79345703125-0.18408203125l2.0439453125,0q0.4189453125,0,1.09814453125,0.04443359375t1.4599609375,0.13330078125t1.55517578125,0.27294921875t1.41552734375,0.45703125t1.041015625,0.6728515625t0.39990234375,0.94580078125q0,0.7744140625-0.45068359375,1.45361328125t-1.1298828125,1.22509765625t-1.4345703125,0.97119140625t-1.35205078125,0.76806640625q2.361328125,0.5205078125,3.6943359375,2.158203125t1.3330078125,4.087890625q0,1.294921875-0.4951171875,2.55810546875t-1.35205078125,2.27880859375t-2.03125,1.6376953125t-2.52001953125,0.6220703125q-0.177734375,0-0.39990234375-0.0380859375t-0.40625-0.12060546875t-0.3173828125-0.23486328125t-0.13330078125-0.3935546875q0-1.1171875,1.2060546875-1.1171875q0.203125,0,0.47607421875,0.05712890625t0.42529296875,0.23486328125q0.6982421875-0.2919921875,1.27587890625-0.9267578125t0.9775390625-1.41552734375t0.6220703125-1.6376953125t0.22216796875-1.55517578125q0-0.837890625-0.24755859375-1.70751953125t-0.71728515625-1.6123046875t-1.1552734375-1.25048828125t-1.57421875-0.634765625q-0.228515625-0.025390625-0.50146484375-0.0380859375l-0.5458984375-0.025390625t-0.533203125-0.076171875t-0.45068359375-0.203125q0.1015625,2.107421875,0.26025390625,4.2021484375t0.42529296875,4.2021484375q0.1015625,0.1015625,0.1396484375,0.29833984375t0.0634765625,0.4189453125t0.025390625,0.42529296875l0,0.3427734375q0,0.228515625-0.15234375,0.37451171875t-0.36181640625,0.23486328125t-0.4443359375,0.1142578125t-0.41259765625,0.025390625q-0.5712890625,0-0.8759765625-0.15234375t-0.431640625-0.4443359375t-0.1650390625-0.66650390625t-0.0634765625-0.81884765625q-0.3427734375-3.5419921875-0.4951171875-7.0078125t-0.15234375-7.0078125q0-0.4189453125-0.03173828125-0.80615234375z M164.82012695312,12.541015625q0,1.5615234375,0.1015625,3.12939453125t0.177734375,3.12939453125q0.5712890625-0.3427734375,1.498046875-0.80615234375t1.79638671875-1.02197265625t1.49169921875-1.2314453125t0.6220703125-1.4599609375q0-0.6220703125-0.736328125-0.94580078125t-1.7138671875-0.482421875t-1.91064453125-0.19677734375t-1.32666015625-0.1142578125z M175.911640625,30.822265625q0.05078125-2.6533203125,0.22216796875-5.2939453125t0.29833984375-5.2939453125q0.025390625-1.015625,0.025390625-1.84716796875t0.08251953125-1.44091796875t0.3046875-0.93310546875t0.74267578125-0.32373046875q0.4443359375,0,0.6728515625,0.126953125t0.34912109375,0.32373046875t0.14599609375,0.4443359375t0.025390625,0.50146484375q0,0.3681640625,0.025390625,0.72998046875t0.025390625,0.72998046875q0,2.6787109375-0.14599609375,5.3447265625t-0.14599609375,5.3701171875q0,0.3935546875,0.0126953125,0.79345703125t0.0126953125,0.81884765625q0,0.15234375-0.1396484375,0.25390625t-0.34912109375,0.17138671875t-0.4443359375,0.09521484375t-0.38720703125,0.025390625q-0.177734375,0-0.39990234375-0.025390625t-0.431640625-0.10791015625t-0.35546875-0.19677734375t-0.14599609375-0.2666015625z M176.622578125,13.607421875q0-0.126953125,0.0380859375-0.28564453125t0.0888671875-0.28564453125q0.025390625-0.15234375,0.076171875-0.5205078125t0.18408203125-0.71728515625t0.3681640625-0.6220703125t0.66650390625-0.27294921875l0.2412109375,0q0.203125,0.05078125,0.41259765625,0.126953125t0.20947265625,0.3681640625q0,0.126953125-0.0126953125,0.2412109375t-0.0380859375,0.25390625q-0.1015625,0.7490234375-0.19677734375,1.1806640625t-0.22216796875,0.65380859375t-0.32373046875,0.28564453125t-0.50146484375,0.0888671875q-0.1015625,0-0.27294921875-0.0126953125t-0.330078125-0.0634765625t-0.27294921875-0.15869140625t-0.1142578125-0.26025390625z M181.42991210937,30.7080078125q0-0.076171875,0.05078125-0.53955078125t0.13330078125-1.1298828125t0.18408203125-1.4345703125t0.177734375-1.45361328125t0.13330078125-1.2060546875t0.05712890625-0.6982421875q-0.1015625-0.05078125-0.24755859375-0.14599609375t-0.14599609375-0.22216796875q0-0.177734375,0.17138671875-0.28564453125t0.29833984375-0.15869140625q0.05078125-0.6474609375,0.126953125-1.802734375t0.23486328125-2.49462890625t0.4443359375-2.716796875t0.75537109375-2.5009765625t1.1298828125-1.83447265625t1.625-0.7109375t1.599609375,0.609375t1.03466796875,1.5869140625t0.609375,2.1708984375t0.3173828125,2.3740234375t0.13330078125,2.208984375t0.05078125,1.650390625q0.025390625,0.3935546875,0.1904296875,0.52685546875t0.36181640625,0.18408203125t0.35546875,0.1142578125t0.15869140625,0.3173828125q0,0.2919921875-0.35546875,0.40625t-0.55859375,0.1396484375q0.126953125,1.5869140625,0.34912109375,3.123046875t0.59033203125,3.09765625q0.05078125,0.2919921875,0.1396484375,0.59033203125t0.0888671875,0.57763671875q0,0.203125-0.1396484375,0.33642578125t-0.36181640625,0.20947265625t-0.4443359375,0.1015625t-0.37451171875,0.025390625q-0.5712890625,0-0.96484375-0.2158203125t-0.5205078125-0.8251953125q-0.3427734375-1.6376953125-0.6728515625-3.4404296875q-0.279296875-1.5615234375-0.279296875-3.0341796875q0-0.228515625,0.0126953125-0.45703125q-1.06640625,0-2.1455078125,0.05078125t-2.0693359375,0.380859375q-0.025390625,0.3427734375-0.126953125,1.294921875t-0.228515625,2.0439453125t-0.26025390625,2.08837890625t-0.15869140625,1.41552734375q-0.025390625,0.177734375-0.26025390625,0.33642578125t-0.5078125,0.17138671875t-0.482421875-0.17138671875t-0.20947265625-0.65380859375z M183.80393554687,23.0146484375q0.990234375-0.228515625,1.98681640625-0.2666015625t2.01220703125-0.0888671875q-0.05078125-0.3173828125-0.025390625-0.65380859375t0.025390625-0.67919921875q0-0.7490234375-0.0380859375-1.7392578125t-0.1142578125-2.005859375t-0.19677734375-1.99951171875t-0.27294921875-1.751953125t-0.32373046875-1.22509765625t-0.37451171875-0.45703125q-0.3935546875,0.025390625-0.74267578125,0.67919921875t-0.634765625,1.6630859375t-0.5205078125,2.259765625t-0.3935546875,2.44384765625t-0.26025390625,2.2216796875t-0.126953125,1.599609375z"/></svg>
