<?xml version="1.0"?>
<svg version="1.1" xmlns="http://www.w3.org/2000/svg" width="280" height="56" style=""><path fill="#2868de" d="M45.924,28.288q0,2.844-2.772,6.696q-2.16,3.024-5.742,4.86t-6.606,1.836q-1.116,0-1.872-0.252q-1.512,1.944-4.86,6.084q1.26,1.8,4.554,3.384t5.67,1.584t3.528-0.648q1.584-0.828,1.584-2.376q0-0.396-0.072-0.756t0.234-0.36t0.54,0.522t0.234,0.918q0,1.26-1.332,2.376q-1.692,1.368-4.608,1.368t-6.048-1.368t-5.148-3.708q-2.88,2.88-5.472,2.88q-0.792,0-1.368-0.288q-1.26-0.72-1.26-2.736t1.674-4.968t2.646-3.132q0.648,0,1.476,1.476l2.268,4.392q1.908-2.52,3.996-5.508q-2.952-1.332-2.952-3.852q0-2.088,1.692-3.384q0.936-0.684,1.998-0.684t1.602,1.116q0.108,0.216,0.018,0.27t-0.126,0.018q-0.72-0.72-1.548-0.72l-0.072,0q-1.044,0-1.818,1.116t-0.774,2.052l0,0.216q0,1.872,2.592,3.204q0.432-0.612,1.386-2.034t1.494-2.214q7.164-10.512,11.916-10.512q3.348,0,3.348,3.132z M42.72,25.768q-1.8,0-4.464,3.024q-1.836,2.124-4.302,5.706t-4.446,6.138q0.468,0.108,1.044,0.108q2.52,0,5.76-1.728t5.112-4.356q3.276-4.572,3.276-6.948q0-1.44-1.26-1.836q-0.324-0.108-0.72-0.108z M22.272,47.26q-0.864-1.188-1.8-3.042t-1.242-2.214t-0.414-0.36l-0.144,0q-0.648,0.108-1.404,2.304t-0.756,4.302t1.296,2.106q0.936,0,2.25-0.972t2.214-2.124z M50.35812,49.816q-0.18,0.036-0.774,0.036t-1.188-0.468t-0.594-1.206t0.27-1.638t0.378-1.368q-4.14,4.824-6.48,4.824q-1.476,0-1.62-1.836l0-0.252q0-1.548,1.872-4.176q-1.044,0.936-2.124,2.16q-0.144,0.144-0.36,0.144q-0.144,0-0.144-0.18t0.324-0.612l4.968-5.832q0.936-1.08,1.908-1.08t0.972,0.648q0,0.252-0.216,0.468q-1.44,1.332-3.618,4.428t-2.178,4.572q0,0.648,0.432,0.648q1.512,0,4.392-2.988q1.008-1.008,3.744-4.446t3.6-3.438q1.296,0,1.296,1.008q0,0.36-1.512,2.088q-2.052,2.484-3.132,4.05t-1.08,2.538t0.54,0.972q0.252,0,0.576-0.144q2.484-1.08,5.94-5.04q0.216-0.252,0.432-0.252t0.216,0.234t-0.252,0.522q-1.548,1.8-3.636,3.618t-2.952,1.998z M69.19224,38.62l0.504-0.108q0.468,0,0.738,0.288t0.27,0.45t-0.036,0.36t-1.044,1.818q-1.26,2.196-2.088,3.708q-2.916,5.436-4.464,7.452q-3.312,4.392-6.3,4.392q-1.044,0-1.818-0.882t-0.81-1.962q0.108-0.432,0.324-0.432q0.108,0,0.18,0.252q0.18,0.936,0.684,1.44t1.008,0.504q2.052,0,4.392-2.7q1.548-1.8,3.42-5.256l1.8-3.564l-2.7,2.736q-2.592,2.484-3.546,2.484t-1.818-0.648q-0.972-0.72-0.972-1.908q0-2.628,3.69-6.264t6.714-3.636q1.224,0,1.584,0.792q0.108,0.288,0.18,0.486t0.108,0.198z M58.42824,47.476q0,1.296,0.9,1.296q2.088,0,5.688-4.572l3.816-5.256q-0.216-0.504-0.9-0.504q-2.232,0-5.868,3.438t-3.636,5.598z M80.61036,49.456q-2.124,0-2.124-2.484q0-1.404,0.99-3.114t2.43-4.014q-4.608,2.304-8.352,6.804q-2.088,3.132-2.448,3.132q-1.044,0-1.044-0.612q0-0.324,0.432-1.152q3.492-6.228,5.292-9.108q4.284-6.876,6.048-7.452q0.072-0.036,0.144-0.036q0.468,0,0.648,0.756q-0.108,0.756-3.744,5.472q-3.78,4.788-4.284,6.264q1.332-0.972,4.644-3.276q3.564-2.484,4.716-2.484t1.152,0.9q0,0.144-0.018,0.198t-2.502,3.402t-2.484,4.932q0,0.828,0.612,0.828q1.944-0.072,5.832-4.68q0.324-0.324,0.486-0.324t0.162,0.216q0,0.72-3.564,3.888q-2.232,1.944-3.024,1.944z M99.15648,38.836l0.504-0.108q0.396,0,0.756,0.324t0.36,0.504t-2.232,3.474t-2.232,4.59q0,0.108,0.036,0.216q0.18,0.828,0.792,0.828q1.872,0,6.84-6.192q0.108-0.144,0.252-0.144t0.144,0.27t-0.324,0.702q-4.608,6.156-7.02,6.156q-0.324,0-0.612-0.108q-1.584-0.612-1.584-2.376q0-0.612,0.144-1.224l-2.232,2.16q-2.124,1.872-3.078,1.872t-1.818-0.612q-0.972-0.72-0.972-1.908q0-2.628,3.672-6.282t6.732-3.654q1.188,0,1.584,0.828q0.108,0.288,0.18,0.486t0.108,0.198z M88.39248,47.692q0,1.296,0.9,1.296q2.088,0,5.688-4.572l3.816-5.256q-0.288-0.504-0.936-0.504q-2.196,0-5.832,3.402t-3.636,5.634z M113.0226,38.008l5.184-0.072q0.108,0.072,0.108,0.108q0,0.324-4.482,0.9t-4.842,0.684q-0.684,0.612-2.52,3.654t-1.836,4.446q0,1.332,1.836,1.332q0.864,0,2.268-0.54t2.16-1.008q2.016-1.26,4.32-3.708q0.504-0.504,0.684-0.504q0.108,0,0.108,0.216t-0.54,0.864q-1.872,2.304-4.212,3.708q-2.808,1.728-5.364,1.728q-1.116,0-1.818-0.486t-0.702-1.962t1.296-4.05t1.98-3.834q-0.504,0.108-0.864,0.108q-1.044,0-1.044-0.828q0-0.612,0.864-0.864q0.108,0,0.324-0.036l2.088,0q0.648-0.828,1.476-1.908q1.008-1.296,1.368-1.296t0.9,0.288t0.54,0.684t-1.728,2.34q0.936,0.036,2.448,0.036z M125.98872,49.816q-0.18,0.036-0.774,0.036t-1.188-0.468t-0.594-1.206t0.27-1.638t0.378-1.368q-4.14,4.824-6.48,4.824q-1.476,0-1.62-1.836l0-0.252q0-1.548,1.872-4.176q-1.044,0.936-2.124,2.16q-0.144,0.144-0.36,0.144q-0.144,0-0.144-0.18t0.324-0.612l4.968-5.832q0.936-1.08,1.908-1.08t0.972,0.648q0,0.252-0.216,0.468q-1.44,1.332-3.618,4.428t-2.178,4.572q0,0.648,0.432,0.648q1.512,0,4.392-2.988q1.008-1.008,3.744-4.446t3.6-3.438q1.296,0,1.296,1.008q0,0.36-1.512,2.088q-2.052,2.484-3.132,4.05t-1.08,2.538t0.54,0.972q0.252,0,0.576-0.144q2.484-1.08,5.94-5.04q0.216-0.252,0.432-0.252t0.216,0.234t-0.252,0.522q-1.548,1.8-3.636,3.618t-2.952,1.998z M135.39084,48.88q1.188,0,3.06-1.26t3.636-3.42q0.432-0.576,0.684-0.576t0.252,0.216t-1.476,1.872q-3.6,3.96-6.012,3.96q-1.188,0-2.016-0.558t-0.828-1.728t0.612-2.718q1.044-2.448,3.348-6.156q4.212-6.84,5.976-6.84q0.36,0,0.738,0.27t0.414,0.594q-0.828,1.116-3.186,4.284t-3.258,4.554t-1.35,2.07t-0.666,1.062t-0.504,0.99q-0.612,1.224-0.612,2.304t1.188,1.08z"/><path fill="#32c732" d="M172.65596,44.995l0,2.805l-10.494,0l0-2.805l2.475-0.891l-0.792-2.409l-7.326,0l-0.825,2.376l2.574,0.924l0,2.805l-9.966,0l0-2.805l2.409-0.924l7.26-19.437l5.28-0.099l7.095,19.536z M162.75596,38.164l-2.475-7.821l-2.607,7.821l5.082,0z M183.19979,29.98l0.297,2.277s2.376-2.607,4.587-2.607c1.815,0,3.069,0.594,3.069,0.594l-0.264,6.336l-2.97,0l-0.495-2.805c-1.914,0-3.564,1.848-3.564,1.848l0,8.712l3.3,0.825l0,2.64l-10.89,0l0-2.64l2.64-0.825l0-10.725l-2.64-0.825l0-2.64z M206.01962,47.8l-0.594-2.145s-2.541,2.475-5.346,2.475c-3.201,0-5.148-1.881-5.148-5.181c0-3.894,2.937-5.445,7.953-5.445l2.31,0l0-1.815c0-1.683-0.891-2.409-2.541-2.409c-1.683,0-2.904,0.495-2.904,0.495l-0.495,2.079l-2.97,0l-0.231-4.884s3.993-1.32,7.161-1.32c5.016,0,6.93,1.749,6.93,6.534l0,8.151l2.475,0.594l0,2.64z M205.19462,40.309l-1.881,0c-2.574,0-3.597,0.66-3.597,2.145c0,1.254,0.693,1.98,1.947,1.98c1.749,0,3.531-1.914,3.531-1.914l0-2.211z M223.32845,22.225l0,9.174c0.561-0.429,2.211-1.749,4.719-1.749c4.422,0,6.765,3.201,6.765,8.745c0,6.204-3.234,9.801-9.57,9.801c-3.63,0-6.864-0.726-6.864-0.726l0-21.681l-2.475-0.66l0-2.64z M223.32845,35.095l0,8.877s0.759,0.264,2.442,0.264c2.871,0,3.927-2.178,3.927-5.511c0-3.3-0.924-5.115-3.234-5.115c-1.98,0-3.135,1.485-3.135,1.485z M241.62728,24.535c0-1.881,1.353-2.97,2.838-2.97c1.716,0,2.772,0.891,2.772,2.97c0,1.947-1.419,3.003-2.772,3.003c-1.782,0-2.838-1.056-2.838-3.003z M247.17128,44.335l2.31,0.825l0,2.64l-9.9,0l0-2.64l2.64-0.825l0-10.725l-2.64-0.825l0-2.64l7.59-0.165l0,14.355z M265.17311,47.8l-0.594-2.145s-2.541,2.475-5.346,2.475c-3.201,0-5.148-1.881-5.148-5.181c0-3.894,2.937-5.445,7.953-5.445l2.31,0l0-1.815c0-1.683-0.891-2.409-2.541-2.409c-1.683,0-2.904,0.495-2.904,0.495l-0.495,2.079l-2.97,0l-0.231-4.884s3.993-1.32,7.161-1.32c5.016,0,6.93,1.749,6.93,6.534l0,8.151l2.475,0.594l0,2.64z M264.34811,40.309l-1.881,0c-2.574,0-3.597,0.66-3.597,2.145c0,1.254,0.693,1.98,1.947,1.98c1.749,0,3.531-1.914,3.531-1.914l0-2.211z"/></svg>
