<?xml version="1.0"?>
<svg version="1.1" xmlns="http://www.w3.org/2000/svg" width="221" height="53" style=""><path fill="#4e4ecf" d="M15.9228515625,33.970703125l0-2.314453125q0-2.40234375,0.08056640625-4.76806640625t0.13916015625-4.76806640625q0-0.4541015625-0.029296875-1.0107421875q-0.0146484375-0.1611328125-0.0146484375-0.3076171875q0-0.3662109375,0.05859375-0.7177734375q0.0732421875-0.46875,0.35888671875-0.8056640625t0.94482421875-0.3369140625q0.5419921875,0,0.82763671875,0.1171875t0.40283203125,0.34423828125t0.1318359375,0.5712890625t0.0146484375,0.79833984375q0,2.431640625-0.05859375,4.8779296875q-0.0439453125,1.6259765625-0.0439453125,3.251953125q0,0.8203125,0.0146484375,1.640625q0.029296875,2.431640625,0.22705078125,4.86328125t0.66650390625,4.8046875q1.46484375-0.05859375,2.9296875-0.146484375t2.9296875-0.087890625q0.146484375,0,0.41748046875,0.029296875t0.5419921875,0.1025390625t0.46142578125,0.1904296875t0.1904296875,0.3369140625q0,0.146484375-0.1318359375,0.2490234375t-0.2490234375,0.1611328125l-0.029296875,0q-0.234375,0.1171875-0.93017578125,0.22705078125t-1.58203125,0.16845703125t-1.8603515625,0.1025390625t-1.8310546875,0.0732421875t-1.48681640625,0.0439453125t-0.7763671875,0.0146484375l-0.1318359375,0q-0.3515625,0-0.791015625-0.1171875q-0.52734375-0.146484375-0.6591796875-0.5712890625q-0.263671875-1.083984375-0.41748046875-2.24853515625t-0.234375-2.36572265625t-0.08056640625-2.40234375z M28.618212890625,34.7470703125q0-0.29296875,0.06591796875-0.7763671875t0.15380859375-0.95947265625t0.205078125-0.88623046875t0.2783203125-0.52734375q0.1171875-0.1171875,0.40283203125-0.234375t0.6005859375-0.16845703125t0.5859375,0.0439453125t0.32958984375,0.38818359375q-0.205078125,0.263671875-0.37353515625,0.90087890625t-0.25634765625,1.41357421875q-0.0732421875,0.6591796875-0.0732421875,1.3623046875l0,0.2490234375q0.0146484375,0.8203125,0.146484375,1.5087890625t0.40283203125,1.13525390625t0.75439453125,0.44677734375q1.025390625,0,1.875-0.94482421875t1.5087890625-2.30712890625t1.1572265625-2.89306640625t0.849609375-2.67333984375q0.087890625-0.3369140625,0.41748046875-0.4541015625t0.71044921875-0.08056640625t0.68115234375,0.18310546875t0.35888671875,0.3515625q-0.29296875,2.4609375-0.46142578125,4.921875t-0.16845703125,4.951171875q0,0.4833984375,0.0439453125,0.88623046875t-0.0439453125,0.6884765625t-0.38818359375,0.4541015625t-0.95947265625,0.16845703125q-0.146484375,0-0.37353515625-0.029296875t-0.46875-0.09521484375t-0.41015625-0.19775390625t-0.16845703125-0.3076171875q0-1.083984375,0.08056640625-2.2265625t0.22705078125-2.2119140625q-0.3955078125,0.5712890625-0.87158203125,1.13525390625t-1.04736328125,1.01806640625t-1.23046875,0.72509765625t-1.4208984375,0.27099609375q-1.083984375,0-1.70654296875-0.5126953125t-0.9375-1.28173828125t-0.3955078125-1.67724609375t-0.08056640625-1.7578125z M42.39755859375,35.5234375q0-0.8056640625,0.15380859375-1.72119140625t0.52734375-1.67724609375t1.03271484375-1.259765625t1.6845703125-0.498046875q0.6884765625,0,1.3330078125,0.22705078125t1.2158203125,0.62255859375q0.17578125-0.29296875,0.556640625-0.35888671875t0.673828125-0.06591796875q0.1171875,0,0.32958984375,0.0146484375t0.41748046875,0.087890625t0.35888671875,0.17578125t0.18310546875,0.29296875q0.1171875,1.025390625,0.1611328125,2.04345703125t0.1318359375,2.02880859375q0.146484375,1.8896484375,0.4541015625,3.7353515625t0.3076171875,3.7353515625q0,0.8935546875-0.08056640625,1.93359375t-0.4248046875,1.92626953125t-1.00341796875,1.47216796875t-1.8310546875,0.5859375q-1.0546875,0-1.61865234375-0.37353515625t-1.01806640625-1.25244140625q0.029296875-0.29296875,0.37353515625-0.38818359375t0.59326171875-0.09521484375q0.234375,0,0.47607421875,0.0439453125t0.38818359375,0.146484375l0.3662109375,0.234375q0.5419921875-1.11328125,0.6591796875-2.431640625t0.1171875-2.548828125q0-1.025390625-0.1025390625-2.02880859375t-0.205078125-2.01416015625q-1.025390625,1.8603515625-3.1201171875,1.8603515625q-0.966796875,0-1.57470703125-0.41015625t-0.9375-1.0400390625t-0.4541015625-1.4208984375t-0.12451171875-1.58203125z M44.19931640625,35.6552734375q0,0.3662109375,0.029296875,0.94482421875t0.15380859375,1.13525390625t0.35888671875,0.95947265625t0.6591796875,0.40283203125q0.8056640625,0,1.2744140625-0.6298828125t0.73974609375-1.50146484375t0.43212890625-1.8017578125t0.41015625-1.53076171875q-0.029296875-0.205078125-0.029296875-0.40283203125l0-0.40283203125q-0.3369140625-0.6298828125-0.9814453125-1.09130859375t-1.3330078125-0.62255859375q-0.087890625-0.0146484375-0.1611328125-0.0146484375q-0.41015625,0-0.673828125,0.4833984375q-0.3369140625,0.5859375-0.52734375,1.39892578125t-0.27099609375,1.60400390625t-0.08056640625,1.0693359375z M54.917138671875,37.6328125l0-1.376953125q0-0.7470703125,0.03662109375-2.11669921875t0.09521484375-3.0029296875t0.1611328125-3.40576171875t0.234375-3.34716796875t0.31494140625-2.81982421875t0.41748046875-1.845703125q0.146484375-0.3369140625,0.4833984375-0.4248046875t0.6591796875-0.087890625q0.5126953125,0,0.90087890625,0.22705078125t0.38818359375,0.82763671875l-0.263671875,0.29296875q-0.5126953125,3.3837890625-0.6591796875,6.796875t-0.205078125,6.826171875q0.3662109375-0.5712890625,0.82763671875-1.12060546875t1.025390625-0.97412109375t1.2158203125-0.68115234375t1.42822265625-0.25634765625q0.99609375,0,1.64794921875,0.6005859375t1.07666015625,1.56005859375t0.6298828125,2.14599609375t0.31494140625,2.373046875t0.15380859375,2.24853515625t0.1318359375,1.76513671875q-0.2783203125,0.380859375-0.8203125,0.380859375l-0.0439453125,0q-0.234375,0-0.5126953125-0.05859375t-0.3662109375-0.29296875l0.029296875,0.029296875q-0.205078125-0.4541015625-0.2783203125-1.31103515625t-0.1171875-1.8896484375t-0.15380859375-2.11669921875t-0.32958984375-1.962890625t-0.64453125-1.4501953125t-1.142578125-0.6005859375l-0.087890625,0q-0.8642578125,0-1.4501953125,0.52734375q-0.615234375,0.556640625-0.99609375,1.46484375t-0.5859375,2.021484375t-0.31494140625,2.14599609375t-0.16845703125,1.875t-0.146484375,1.23779296875q-0.087890625,0.3369140625-0.52001953125,0.44677734375t-0.73974609375,0.10986328125q-0.7177734375,0-1.171875-0.41015625q-0.3369140625-0.8056640625-0.3955078125-2.0068359375t-0.05859375-2.34375z M68.930859375,36.0361328125q0-0.99609375,0.27099609375-1.9189453125t0.81298828125-1.64794921875t1.35498046875-1.1572265625t1.88232421875-0.43212890625q0.6591796875,0,1.45751953125,0.19775390625t1.50146484375,0.5859375t1.171875,0.98876953125t0.46875,1.376953125q0,0.3662109375-0.12451171875,0.556640625t-0.50537109375,0.1904296875l-0.1611328125-0.029296875q0.4248046875,1.142578125,0.732421875,2.34375t0.6005859375,2.40234375q0.1171875,0.234375,0.17578125,0.41748046875t0.05859375,0.35888671875q0,0.234375-0.1318359375,0.38818359375t-0.34423828125,0.22705078125t-0.439453125,0.1025390625t-0.40283203125,0.029296875q-0.6298828125,0-0.94482421875-0.2197265625t-0.4541015625-0.6005859375t-0.16845703125-0.85693359375t-0.1171875-0.95947265625q-0.17578125,0.5712890625-0.46142578125,1.11328125t-0.673828125,0.97412109375t-0.91552734375,0.6884765625t-1.1865234375,0.25634765625q-0.966796875,0-1.6259765625-0.556640625t-1.06201171875-1.36962890625t-0.5859375-1.73583984375t-0.18310546875-1.7138671875z M71.0109375,35.8310546875q0,0.5419921875,0.0732421875,1.142578125t0.24169921875,1.1865234375t0.43212890625,1.10595703125t0.6591796875,0.91552734375q0.7177734375-0.7763671875,1.06201171875-1.8896484375t0.615234375-2.14599609375t0.615234375-1.7724609375t1.06201171875-0.73974609375q0.4541015625,0,0.76171875,0.1611328125q-0.146484375-0.3662109375-0.4833984375-0.71044921875t-0.75439453125-0.6298828125t-0.8642578125-0.46875t-0.84228515625-0.18310546875q-0.1171875,0-0.27099609375,0.03662109375t-0.24169921875,0.00732421875q-0.6005859375,0.17578125-0.98876953125,0.60791015625t-0.6298828125,1.01806640625t-0.34423828125,1.201171875t-0.1025390625,1.1572265625z M81.025634765625,26.734375q0-0.205078125,0.439453125-0.3515625t0.99609375-0.24169921875t1.07666015625-0.13916015625t0.71044921875-0.0732421875q0-0.3955078125,0.029296875-0.79833984375t0.1611328125-0.7177734375t0.41748046875-0.50537109375t0.79833984375-0.1904296875q0.4248046875,0,0.64453125,0.1025390625t0.46875,0.4248046875q0.05859375,0.17578125,0.05859375,0.3369140625l0,0.49072265625t-0.029296875,0.50537109375q0.5419921875-0.05859375,1.07666015625-0.13916015625t1.07666015625-0.08056640625q0.3955078125,0,0.5419921875,0.0146484375t0.29296875,0.3515625q0.1171875,0.3369140625-0.28564453125,0.5126953125t-0.966796875,0.263671875t-1.12060546875,0.1318359375t-0.673828125,0.0439453125q-0.17578125,2.51953125-0.35888671875,4.9951171875t-0.18310546875,5.0244140625q0,1.142578125,0.0732421875,2.3583984375t0.41015625,2.2998046875q0.087890625,0.3369140625,0.29296875,0.6298828125t0.205078125,0.6298828125q0,0.205078125-0.1611328125,0.322265625t-0.38818359375,0.19775390625t-0.4541015625,0.09521484375t-0.37353515625,0.0146484375q-0.9228515625,0-1.40625-0.6884765625t-0.69580078125-1.64794921875t-0.22705078125-1.97021484375t-0.0146484375-1.640625q0-1.2890625,0.05126953125-2.63671875t0.12451171875-2.666015625t0.205078125-2.578125t0.3076171875-2.34375q-0.5126953125,0.05859375-1.00341796875,0.1318359375t-1.00341796875,0.0732421875q-0.1171875,0-0.31494140625-0.0146484375t-0.37353515625-0.0732421875t-0.30029296875-0.1611328125t-0.12451171875-0.29296875z M91.62626953125,34.7470703125q0-0.29296875,0.06591796875-0.7763671875t0.15380859375-0.95947265625t0.205078125-0.88623046875t0.2783203125-0.52734375q0.1171875-0.1171875,0.40283203125-0.234375t0.6005859375-0.16845703125t0.5859375,0.0439453125t0.32958984375,0.38818359375q-0.205078125,0.263671875-0.37353515625,0.90087890625t-0.25634765625,1.41357421875q-0.0732421875,0.6591796875-0.0732421875,1.3623046875l0,0.2490234375q0.0146484375,0.8203125,0.146484375,1.5087890625t0.40283203125,1.13525390625t0.75439453125,0.44677734375q1.025390625,0,1.875-0.94482421875t1.5087890625-2.30712890625t1.1572265625-2.89306640625t0.849609375-2.67333984375q0.087890625-0.3369140625,0.41748046875-0.4541015625t0.71044921875-0.08056640625t0.68115234375,0.18310546875t0.35888671875,0.3515625q-0.29296875,2.4609375-0.46142578125,4.921875t-0.16845703125,4.951171875q0,0.4833984375,0.0439453125,0.88623046875t-0.0439453125,0.6884765625t-0.38818359375,0.4541015625t-0.95947265625,0.16845703125q-0.146484375,0-0.37353515625-0.029296875t-0.46875-0.09521484375t-0.41015625-0.19775390625t-0.16845703125-0.3076171875q0-1.083984375,0.08056640625-2.2265625t0.22705078125-2.2119140625q-0.3955078125,0.5712890625-0.87158203125,1.13525390625t-1.04736328125,1.01806640625t-1.23046875,0.72509765625t-1.4208984375,0.27099609375q-1.083984375,0-1.70654296875-0.5126953125t-0.9375-1.28173828125t-0.3955078125-1.67724609375t-0.08056640625-1.7578125z M105.40561523438,41.236328125q0-0.4248046875,0.03662109375-0.8935546875t0.06591796875-0.87890625l0.087890625-2.197265625q0.146484375-2.63671875,0.35888671875-5.185546875t0.35888671875-5.15625q0.087890625-1.435546875,0.1318359375-2.81982421875t0.1318359375-2.81982421875q-0.05859375-0.1171875-0.05859375-0.1611328125q0-0.205078125,0.15380859375-0.322265625t0.35888671875-0.19775390625t0.43212890625-0.10986328125t0.34423828125-0.029296875l0.3369140625,0q0.4541015625,0.05859375,0.6591796875,0.28564453125t0.263671875,0.5419921875t0.029296875,0.673828125t-0.029296875,0.66650390625q0,2.1240234375-0.1025390625,4.32861328125t-0.234375,4.423828125t-0.24169921875,4.4384765625t-0.10986328125,4.38720703125l0,1.025390625q0,0.6884765625-0.38818359375,0.908203125t-1.07666015625,0.2197265625q-0.6005859375,0-1.0546875-0.263671875t-0.4541015625-0.8642578125z"/><path fill="#05eb51" d="M137.034859375,40.92l0,2.38l-8.904,0l0-2.38l2.1-0.756l-0.672-2.044l-6.216,0l-0.7,2.016l2.184,0.784l0,2.38l-8.456,0l0-2.38l2.044-0.784l6.16-16.492l4.48-0.084l6.02,16.576z M128.634859375,35.124l-2.1-6.636l-2.212,6.636l4.312,0z M145.981139375,28.18l0.252,1.932s2.016-2.212,3.892-2.212c1.54,0,2.604,0.504,2.604,0.504l-0.224,5.376l-2.52,0l-0.42-2.38c-1.624,0-3.024,1.568-3.024,1.568l0,7.392l2.8,0.7l0,2.24l-9.24,0l0-2.24l2.24-0.7l0-9.1l-2.24-0.7l0-2.24z M165.343419375,43.3l-0.504-1.82s-2.156,2.1-4.536,2.1c-2.716,0-4.368-1.596-4.368-4.396c0-3.304,2.492-4.62,6.748-4.62l1.96,0l0-1.54c0-1.428-0.756-2.044-2.156-2.044c-1.428,0-2.464,0.42-2.464,0.42l-0.42,1.764l-2.52,0l-0.196-4.144s3.388-1.12,6.076-1.12c4.256,0,5.88,1.484,5.88,5.544l0,6.916l2.1,0.504l0,2.24z M164.643419375,36.944l-1.596,0c-2.184,0-3.052,0.56-3.052,1.82c0,1.064,0.588,1.68,1.652,1.68c1.484,0,2.996-1.624,2.996-1.624l0-1.876z M180.029699375,21.6l0,7.784c0.476-0.364,1.876-1.484,4.004-1.484c3.752,0,5.74,2.716,5.74,7.42c0,5.264-2.744,8.316-8.12,8.316c-3.08,0-5.824-0.616-5.824-0.616l0-18.396l-2.1-0.56l0-2.24z M180.029699375,32.52l0,7.532s0.644,0.224,2.072,0.224c2.436,0,3.332-1.848,3.332-4.676c0-2.8-0.784-4.34-2.744-4.34c-1.68,0-2.66,1.26-2.66,1.26z M195.555979375,23.56c0-1.596,1.148-2.52,2.408-2.52c1.456,0,2.352,0.756,2.352,2.52c0,1.652-1.204,2.548-2.352,2.548c-1.512,0-2.408-0.896-2.408-2.548z M200.259979375,40.36l1.96,0.7l0,2.24l-8.4,0l0-2.24l2.24-0.7l0-9.1l-2.24-0.7l0-2.24l6.44-0.14l0,12.18z M215.534259375,43.3l-0.504-1.82s-2.156,2.1-4.536,2.1c-2.716,0-4.368-1.596-4.368-4.396c0-3.304,2.492-4.62,6.748-4.62l1.96,0l0-1.54c0-1.428-0.756-2.044-2.156-2.044c-1.428,0-2.464,0.42-2.464,0.42l-0.42,1.764l-2.52,0l-0.196-4.144s3.388-1.12,6.076-1.12c4.256,0,5.88,1.484,5.88,5.544l0,6.916l2.1,0.504l0,2.24z M214.834259375,36.944l-1.596,0c-2.184,0-3.052,0.56-3.052,1.82c0,1.064,0.588,1.68,1.652,1.68c1.484,0,2.996-1.624,2.996-1.624l0-1.876z"/></svg>
